<svg width="128" height="128" xmlns="http://www.w3.org/2000/svg">
 <!-- Created with Method Draw - http://github.com/duopixel/Method-Draw/ -->
 <g>
  <title>background</title>
  <rect fill="none" id="canvas_background" height="130" width="130" y="-1" x="-1"/>
 </g>
 <g>
  <title>Layer 1</title>
  <g id="svg_10">
   <path stroke="#000" id="svg_3" d="m31.139235,87.037273c25.00913,15.94737 51.76827,-11.6886 59.52741,-18.4079c6.5,20.44445 6.75,46.55556 -27,47.58334c-10.34247,-1.14181 -31.26827,-2.03363 -32.52741,-29.17544z" stroke-width="7" fill="#ade8fe"/>
   <path stroke="#000000" id="svg_5" d="m65.281209,11.787293c-15.95158,23.78075 -29.70353,45.06145 -34.69785,73.17544c14.08499,9.69444 28.49133,8.4722 41.83329,-0.83336c-8.60667,-7.05848 -22.33753,-25.61693 -7.13544,-72.34208z" stroke-width="7" fill="#7bdafe"/>
   <path stroke="#000" id="svg_4" d="m64.639235,13.787263c8.6758,14.2807 18.8516,35.22808 25.86074,54.50878c-5.88889,8.22222 -12.6111,13.36111 -19.08332,16.25c-19.14804,-18.41959 -15.54606,-46.92252 -6.77742,-70.75878z" stroke-width="7" fill="#2cb7e5"/>
  </g>
 </g>
</svg>